<?xml version="1.0" encoding="utf-8"?>
<!-- Generator: Adobe Illustrator 16.0.4, SVG Export Plug-In . SVG Version: 6.00 Build 0)  -->
<!DOCTYPE svg PUBLIC "-//W3C//DTD SVG 1.1//EN" "http://www.w3.org/Graphics/SVG/1.1/DTD/svg11.dtd">
<svg version="1.1" id="Layer_1" xmlns="http://www.w3.org/2000/svg" xmlns:xlink="http://www.w3.org/1999/xlink" x="0px" y="0px"
	 width="592px" height="123px" viewBox="0 0 592 123" enable-background="new 0 0 592 123" xml:space="preserve">
<polygon stroke="#000000" stroke-miterlimit="10" points="276.194,2.547 291.967,34.434 317.346,15.176 319.148,35.101 
	366.027,2.641 345.391,36.669 408.383,12.851 369.811,39.083 452.541,23.062 391.572,42.264 510.68,26.657 409.93,46.103 
	523.467,36.577 424.27,50.466 568.055,36.739 434.09,55.209 554.34,55.039 439.068,60.166 592.119,62.904 414.43,64.564 
	557.887,73.113 433.977,70.055 567.475,83.234 424.076,74.648 495.217,85.029 409.676,78.795 470.857,96.664 391.26,82.357 
	469.705,106.195 369.449,85.209 389.314,100.77 344.996,87.256 374.188,120.283 318.732,88.428 306.084,111.014 291.546,88.686 
	270.024,101.779 264.37,88.018 231.122,106.58 238.124,86.451 184.777,108.467 213.707,84.037 132.703,104.541 191.946,80.855 
	92.168,93.93 173.583,77.018 40,88.225 159.247,72.654 74.245,76.461 149.422,67.912 0.868,69.338 144.445,62.953 67.418,58.665 
	144.486,57.947 1.025,49.401 149.539,53.066 16.041,39.885 159.436,48.472 78.267,34.854 173.84,44.324 73.408,23.365 
	192.259,40.763 113.808,16.924 214.066,37.911 160.264,12.004 238.518,35.864 211.2,8.771 264.786,34.692 "/>
<polygon fill="#E7E515" stroke="#000000" stroke-miterlimit="10" points="275.727,0 291.526,31.887 316.939,12.63 318.746,32.554 
	365.693,0.095 345.027,34.123 408.111,10.306 369.48,36.538 452.332,20.518 391.275,39.719 510.557,24.113 409.658,43.556 
	523.363,34.033 424.02,47.921 568.016,34.195 433.855,52.663 554.279,52.496 438.842,57.621 592.115,60.361 414.166,62.02 
	557.832,70.568 433.742,67.51 567.436,80.689 423.826,72.104 495.072,82.484 409.406,76.25 470.678,94.119 390.965,79.811 
	469.523,103.65 369.121,82.662 389.016,98.225 344.629,84.709 373.865,117.738 318.33,85.881 305.662,108.469 291.103,86.137 
	269.549,99.232 263.885,85.471 230.59,104.031 237.602,83.904 184.178,105.92 213.149,81.488 132.027,101.992 191.357,78.307 
	91.434,91.381 172.967,74.469 39.189,85.676 158.61,70.105 73.485,73.91 148.771,65.363 0,66.789 143.786,60.405 66.646,56.117 
	143.827,55.399 0.157,46.851 148.887,50.518 15.194,37.336 158.798,45.924 77.513,32.305 162.875,40.751 72.645,20.816 
	191.67,38.215 113.104,14.376 213.509,35.363 159.628,9.456 237.997,33.316 210.638,6.223 264.302,32.145 "/>
<text transform="matrix(1.0179 0 0 1 205.2456 82.8496)" stroke="#000000" stroke-width="6" stroke-miterlimit="10" font-family="'STHeitiSC-Medium'" font-size="22.4784">乃丹匕匕ㄥモ ㄗ口れム</text>
<text transform="matrix(1.0179 0 0 1 206.2456 80.8848)" fill="#F9ED23" font-family="'STHeitiSC-Medium'" font-size="22.4784">乃丹匕匕ㄥモ ㄗ口れム</text>
<g>
	
		<text transform="matrix(1.0179 0 0 1 143.1958 84.2031)" stroke="#000000" stroke-width="8" stroke-miterlimit="10" font-family="'ArialRoundedMTBold'" font-size="81.7529">B</text>
</g>
<g>
	<text transform="matrix(1.0179 0 0 1 144.1958 82.2383)" fill="#F9ED23" font-family="'ArialRoundedMTBold'" font-size="81.7529">B</text>
</g>
<g>
	
		<text transform="matrix(1.0179 0 0 1 207.0728 53.2959)" stroke="#000000" stroke-width="7" stroke-miterlimit="10" font-family="'ArialRoundedMTBold'" font-size="34.9741">ATTLE PONG</text>
</g>
<g>
	<text transform="matrix(1.0179 0 0 1 208.0728 51.3311)" fill="#F9ED23" font-family="'ArialRoundedMTBold'" font-size="34.9741">ATTLE PONG</text>
</g>
<ellipse cx="365.47" cy="39.54" rx="19.687" ry="19.34"/>
<ellipse fill="#ED1F24" stroke="#000000" stroke-miterlimit="10" cx="366.687" cy="38.558" rx="16.31" ry="16.023"/>
<ellipse cx="353.969" cy="39.54" rx="1.756" ry="1.725"/>
<ellipse cx="357.48" cy="34.382" rx="0.719" ry="0.707"/>
<ellipse cx="353.25" cy="33.676" rx="0.719" ry="0.707"/>
<ellipse cx="354.688" cy="44.396" rx="0.719" ry="0.707"/>
<ellipse cx="352.214" cy="36.354" rx="0.983" ry="0.967"/>
<circle cx="355.407" cy="36.056" r="0.255"/>
<circle cx="355.407" cy="31.564" r="0.255"/>
<g>
	
		<text transform="matrix(1.0179 0 0 1 329.0732 45.9092)" stroke="#000000" stroke-width="7" stroke-miterlimit="10" font-family="'ArialRoundedMTBold'" font-size="34.9741">p</text>
</g>
<g>
	<text transform="matrix(1.0179 0 0 1 329.0723 51.6328)" fill="#F9ED23" font-family="'ArialRoundedMTBold'" font-size="34.9741">P</text>
</g>
</svg>
